<?xml version="1.0" encoding="UTF-8"?>
<svg width="58px" height="48px" viewBox="0 0 58 48" version="1.1" xmlns="http://www.w3.org/2000/svg" xmlns:xlink="http://www.w3.org/1999/xlink">
    <title>90E72B91-D790-476F-8E19-FF0BB1606C0C</title>
    <defs>
        <filter id="filter-1">
            <feColorMatrix in="SourceGraphic" type="matrix" values="0 0 0 0 0.535339 0 0 0 0 0.359830 0 0 0 0 0.864782 0 0 0 1.000000 0"></feColorMatrix>
        </filter>
    </defs>
    <g id="Page-1" stroke="none" stroke-width="1" fill="none" fill-rule="evenodd">
        <g id="ead" transform="translate(-973.000000, -11246.000000)" filter="url(#filter-1)">
            <g transform="translate(973.000000, 11246.000000)">
                <path d="M23.5,39 C28.1875,39 32,35.2014652 32,30.5311355 C32,25.8608059 28.1875,22 23.5,22 C18.8125,22 15,25.8608059 15,30.5311355 C15,35.2014652 18.8125,39 23.5,39 Z M23.5,23.1208791 C27.5625,23.1208791 30.9375,26.4212454 30.9375,30.5311355 C30.9375,34.6410256 27.625,37.9413919 23.5,37.9413919 C19.375,37.9413919 16.0625,34.6410256 16.0625,30.5311355 C16.0625,26.4212454 19.4375,23.1208791 23.5,23.1208791 Z" id="Shape" fill="#F73A58" fill-rule="nonzero"></path>
                <path d="M20.3181818,33.9367589 C20.3818182,34 20.5090909,34 20.5727273,34 C20.7,34 20.7636364,34 20.8272727,33.9367589 L26.7454545,30.5217391 C26.9363636,30.3952569 27,30.2055336 27,30.0158103 C27,29.826087 26.8727273,29.6363636 26.7454545,29.5098814 L20.8272727,26.0948617 C20.6363636,25.9683794 20.4454545,25.9683794 20.2545455,26.0948617 C20.0636364,26.2213439 20,26.4110672 20,26.6007905 L20,33.3675889 C20.0636364,33.6837945 20.1909091,33.8735178 20.3181818,33.9367589 Z M21.2090909,27.6758893 L25.4090909,30.0790514 L21.2090909,32.4822134 L21.2090909,27.6758893 Z" id="Shape" fill="#F73A58" fill-rule="nonzero"></path>
                <path d="M45.0928013,1.96047431 C44.9675435,1.83399209 44.8422857,1.77075099 44.7170279,1.77075099 L24.2373807,0 C24.049494,0 23.7989785,0.126482213 23.6737207,0.316205534 C23.5484629,0.505928854 23.6110918,0.758893281 23.7363496,0.948616601 L28.1830008,6.64031621 L24.6757829,13.2173913 C24.613154,13.2806324 24.613154,13.4071146 24.613154,13.4703557 L2.25464006,13.4703557 C1.00206225,13.4703557 0,14.4822134 0,15.7470356 L0,45.7233202 C0,46.9881423 1.00206225,48 2.25464006,48 L43.9654812,48 C45.2180591,48 46.2201213,46.9881423 46.2201213,45.7233202 L46.2201213,25.486166 C46.408008,25.486166 46.5958947,25.3596838 46.6585235,25.1699605 L50.1657414,18.5296443 L52.8587837,18.7826087 L52.8587837,31.3043478 C52.8587837,31.6205534 53.1092993,31.8735178 53.4224437,31.8735178 C53.7355882,31.8735178 53.9861038,31.6205534 53.9861038,31.3043478 L53.9861038,18.8458498 L57.3680638,19.1620553 C57.3680638,19.1620553 57.4306927,19.1620553 57.4306927,19.1620553 C57.6185794,19.1620553 57.8064661,19.0355731 57.9317239,18.8458498 C58.0569816,18.6561265 57.9943528,18.4031621 57.869095,18.2134387 L45.0928013,1.96047431 Z M45.0928013,45.7233202 C45.0928013,46.3557312 44.5917702,46.8616601 43.9654812,46.8616601 L2.25464006,46.8616601 C1.62835116,46.8616601 1.12732003,46.3557312 1.12732003,45.7233202 L1.12732003,15.7470356 C1.12732003,15.1146245 1.62835116,14.6086957 2.25464006,14.6086957 L25.3020718,14.6086957 L26.930423,16.6956522 L5.01031125,16.6956522 C4.6971668,16.6956522 4.44665124,16.9486166 4.44665124,17.2648221 L4.44665124,44.1422925 C4.44665124,44.458498 4.6971668,44.7114625 5.01031125,44.7114625 L41.2724389,44.7114625 C41.5855834,44.7114625 41.836099,44.458498 41.836099,44.1422925 L41.836099,25.1067194 L45.0928013,25.3596838 L45.0928013,45.7233202 Z M27.8698563,17.8972332 L32.7549098,24.1581028 C32.8801676,24.284585 33.0054254,24.3478261 33.1306832,24.3478261 L40.64615,24.9802372 L40.64615,43.5731225 L5.51134238,43.5731225 L5.51134238,17.8972332 L27.8698563,17.8972332 Z M45.844348,24.284585 L33.5064565,23.2094862 L25.803103,13.4071146 L28.9345475,7.5256917 L36.4500144,17.1383399 C36.5752721,17.2648221 36.7005299,17.3280632 36.8257877,17.3280632 L48.9131636,18.3399209 L45.844348,24.284585 Z M37.2015611,16.2529644 L25.3647007,1.20158103 L44.3412546,2.7826087 L56.1781149,17.8339921 L37.2015611,16.2529644 Z" id="Shape" fill="#F73A58" fill-rule="nonzero"></path>
            </g>
        </g>
    </g>
</svg>