<?xml version="1.0" encoding="UTF-8"?>
<svg width="56px" height="56px" viewBox="0 0 56 56" version="1.1" xmlns="http://www.w3.org/2000/svg" xmlns:xlink="http://www.w3.org/1999/xlink">
    <title>CE807B79-4195-4A00-83CE-C5CC64996BE6</title>
    <g id="Page-1" stroke="none" stroke-width="1" fill="none" fill-rule="evenodd">
        <g id="Pacote-Fullstack-Master" transform="translate(-867.000000, -26861.000000)">
            <g id="Group-14" transform="translate(868.000000, 26862.000000)">
                <path d="M14.2530493,31.03882 C13.953139,30.5459142 13.9198156,29.9215669 14.1530792,29.3958008 L14.2863727,29.1000573 L15.2527504,26.9641323 L15.7192775,25.8797396 L15.9525411,25.3539735 L16.0858345,25.0910904 C16.1191579,25.0253696 16.1524813,24.9267885 16.1858047,24.8610677 C16.3524215,24.4010223 16.4523916,23.9409769 16.485715,23.4480712 L16.485715,23.1851881 L16.485715,22.8565843 C16.5523617,21.1478443 16.9522421,19.504825 17.6853562,17.960387 C20.5511658,11.9140762 27.9156301,9.28524542 34.0471298,12.1769593 C35.879915,13.0313293 37.4794366,14.3128843 38.6790779,15.9230431 C40.3452463,18.0918285 41.1450071,20.7535196 40.9783902,23.4480712 C40.9117435,24.6639054 40.6118332,25.8797396 40.1119827,26.9969927 C39.6787789,28.0156646 39.0456349,28.9686158 38.2791975,29.7901254 C38.0792572,29.9872877 37.879317,30.18445 37.6460535,30.3487519 L37.51276,30.4473331 L37.3794665,30.5459142 L37.1128796,30.7759369 C36.7796459,31.03882 36.6130291,31.1045408 36.7796459,30.6444954 C36.8462926,30.4801935 36.9462627,30.2830312 37.0795562,30.1515896 C37.146203,30.0201481 37.2128497,29.8558462 37.3128198,29.7244046 C37.4127899,29.5929631 37.4794366,29.3958008 37.5794067,29.2314989 C37.6460535,29.0671969 37.7460236,28.9357554 37.8459937,28.8043139 C39.778749,25.8797396 40.0453359,22.1665162 38.5791078,18.9790589 C38.4791377,18.7818966 38.4124909,18.5847343 38.2791975,18.387572 C38.1792274,18.1904096 38.0792572,17.9932473 37.9459638,17.8289454 C36.3131188,15.232975 33.6472493,13.4913746 30.6148229,12.9984689 C28.8820078,12.7355858 27.1158693,12.8670273 25.4830242,13.4256539 L24.8832036,13.6556766 L24.283383,13.9185596 L23.9834727,14.0500012 C23.8835026,14.0828616 23.7835325,14.1485823 23.7168858,14.2143031 L23.1503885,14.542907 C22.4172744,15.0029523 21.7508071,15.5615789 21.1509864,16.1859262 C20.5511658,16.8102735 20.0179919,17.5003416 19.5847882,18.2561304 C19.1515844,19.0119193 18.8183507,19.8005685 18.5850871,20.6549385 C18.3518236,21.5093085 18.2185301,22.3636785 18.1852067,23.2180485 C18.1852067,23.7438146 18.0852366,24.2695808 17.9519431,24.7624866 C17.8852964,25.0253696 17.7853263,25.2553923 17.6853562,25.5182754 C17.5853861,25.7811585 17.485416,25.9783208 17.3521225,26.1754831 L15.7859242,29.6915442 L15.6859541,29.9215669 L15.6526308,30.0201481 C15.6526308,30.0201481 15.6526308,30.0530085 15.6526308,30.0530085 C15.6526308,30.0858689 15.6526308,30.1515896 15.6526308,30.18445 C15.6859541,30.2830312 15.7526009,30.3487519 15.852571,30.3816123 L17.6853562,30.9730992 C17.9852665,31.0716804 18.1852067,31.3345635 18.1852067,31.6303069 L18.1852067,31.6303069 L18.1852067,34.6206019 L18.1852067,35.3763908 L18.1852067,35.9350173 C18.1852067,36.0007381 18.1852067,36.0335985 18.1852067,36.0664589 C18.2185301,36.3950627 18.3518236,36.6908062 18.5850871,36.9208289 C18.8183507,37.1179912 19.118261,37.2494327 19.4181713,37.2494327 L20.9177229,37.2494327 L23.9501493,37.2165723 C24.3167064,37.2165723 24.6499401,37.446595 24.7499102,37.8080592 L24.7499102,37.8080592 L25.4830242,40.2725881 L25.6496411,40.8969354 L25.6829645,41.0283769 C25.6829645,41.0283769 25.6829645,41.0612373 25.6829645,41.0612373 C25.6829645,41.0940977 25.7162878,41.1269581 25.7162878,41.1269581 C25.7829346,41.2255392 25.916228,41.2583996 26.0495215,41.2255392 C28.5154507,40.5354712 31.0480267,39.8454031 33.5806026,39.155335 L37.3461432,38.1366631 L37.8126703,38.0052215 L38.0459339,37.9395008 L38.145904,37.9066404 C38.2458741,37.8409196 38.3458442,37.7423385 38.3791676,37.6437573 C38.3791676,37.5780365 38.3791676,37.5123158 38.3791676,37.446595 L38.3791676,37.3808742 L38.3458442,37.2494327 L38.2791975,37.01941 L38.0126105,36.0335985 C37.6793768,34.883485 37.4461133,33.7005112 37.2794964,32.4846769 C37.1795263,31.6303069 37.2128497,31.1374012 37.3794665,31.1045408 C37.5460834,31.0716804 37.879317,31.5974466 38.2791975,32.4189562 C38.7457246,33.4704885 39.145605,34.5220208 39.4788387,35.6064135 L39.8453957,36.7565269 L39.8787191,36.8879685 C39.9120425,36.9865496 39.9120425,37.0522704 39.9453658,37.1508515 C40.1119827,38.1366631 39.5121621,39.1224746 38.5457844,39.4182181 L37.879317,39.6153804 L36.6130291,39.9768446 L31.6145239,41.4555619 L26.5826954,42.9014188 C26.549372,42.9014188 26.4160785,42.9342792 26.3161084,42.9671396 C26.2161383,43 26.1161682,43 26.0161981,43 C25.8162579,43 25.6163177,43 25.4163775,42.9342792 C24.8165569,42.7699773 24.283383,42.3756527 24.0167961,41.8170262 C23.9501493,41.6527242 23.8835026,41.4884223 23.8501792,41.3241204 L23.6835624,40.6997731 L23.1837119,39.0567539 L19.5181414,39.0238935 C18.9849675,39.0238935 18.4517937,38.8924519 17.9519431,38.6295689 C16.9855655,38.0709423 16.3857449,37.0522704 16.4190682,35.9678777 L16.4190682,34.883485 L16.4523916,32.320375 L15.7192775,32.0574919 L15.4193672,31.9589108 L15.2860737,31.9260504 C15.1861036,31.89319 15.1194569,31.8603296 15.0194868,31.8274692 C14.6862531,31.6303069 14.4196662,31.3674239 14.2530493,31.03882 Z M30.2815892,24.3024412 C31.981081,23.4152108 32.7475184,21.3778669 31.981081,19.6362666 C31.8144641,18.8147569 31.347937,18.0918285 30.6481462,17.5989227 C30.2815892,17.3360396 29.8817088,17.1717377 29.448505,17.0402962 C29.0153012,16.941715 28.5487741,16.9088546 28.1155703,16.941715 C27.2158394,17.0402962 26.3827552,17.4346208 25.7496112,18.0589681 C25.1164672,18.6833154 24.6832634,19.4719646 24.54997,20.359195 C24.54997,20.5563573 24.6499401,20.7206593 24.8165569,20.8521008 C25.0498205,20.9835423 25.283084,20.8192404 25.4497009,20.5892177 C25.9495514,19.9648704 26.549372,19.4391043 27.2158394,19.0447796 C27.9156301,18.6175946 28.815361,18.650455 29.5151517,19.07764 C30.1816191,19.4719646 30.5814995,20.1620327 30.6814696,20.9178216 C30.6814696,21.1149839 30.6148229,21.2792858 30.5814995,21.4764481 C30.4815294,21.7393312 30.3149126,22.0022143 30.1149724,22.1993766 C30.0150023,22.2979577 29.9150322,22.3965389 29.7817387,22.4622596 C29.7150919,22.49512 29.6484452,22.5279804 29.6151218,22.5608408 L29.3485349,22.7251427 C28.815361,23.0208862 28.3488339,23.4809316 28.0822469,24.0395581 C27.9489535,24.3024412 27.8489834,24.5981846 27.7823366,24.8939281 C27.7490133,25.0253696 27.7490133,25.1896716 27.7490133,25.3539735 C27.7490133,25.485415 27.7490133,25.6168566 27.7823366,25.7482981 C27.8489834,26.2412039 28.0822469,26.6355285 28.5487741,26.6026681 C28.9819779,26.5369473 29.3152115,26.1754831 29.3152115,25.7154377 C29.2818882,25.0910904 29.6817686,24.5653243 30.2815892,24.3024412 Z M29.2152414,29.6586839 C29.8150621,29.2643592 29.4818284,28.8371742 29.6151218,28.4428496 C29.5151517,28.3771289 29.4151816,28.3771289 29.2818882,28.3442685 C29.081948,28.3114081 28.8820078,28.3442685 28.6487442,28.3771289 C28.1155703,28.47571 27.8823067,28.6071516 27.81566,28.7714535 C27.6490431,29.1000573 27.4157796,29.4615216 27.5823964,29.7901254 L27.549073,29.9544273 C27.4491029,30.2173104 27.4824263,30.5130539 27.6490431,30.7102162 C27.7156899,30.7759369 27.9489535,30.8745181 28.4154806,30.8745181 C28.6820675,30.9073785 28.9486545,30.8745181 29.1819181,30.7759369 C29.2818882,30.6444954 29.3485349,30.5130539 29.3485349,30.3487519 C29.3485349,30.2173104 29.3152115,30.0858689 29.2818882,29.9872877 L29.2152414,29.6586839 Z" id="Shape" fill="#4AEAF8" fill-rule="nonzero"></path>
                <circle id="Oval" stroke="#B85CDD" cx="27" cy="27" r="27"></circle>
            </g>
        </g>
    </g>
</svg>