<?xml version="1.0" encoding="UTF-8"?>
<svg width="38px" height="47px" viewBox="0 0 38 47" version="1.1" xmlns="http://www.w3.org/2000/svg" xmlns:xlink="http://www.w3.org/1999/xlink">
    <title>466DFBE1-D1B4-4ABE-BC59-B65C2C1C295D</title>
    <defs>
        <filter id="filter-1">
            <feColorMatrix in="SourceGraphic" type="matrix" values="0 0 0 0 0.535339 0 0 0 0 0.359830 0 0 0 0 0.864782 0 0 0 1.000000 0"></feColorMatrix>
        </filter>
    </defs>
    <g id="Page-1" stroke="none" stroke-width="1" fill="none" fill-rule="evenodd">
        <g id="individual" transform="translate(-609.000000, -11405.000000)" filter="url(#filter-1)">
            <g transform="translate(609.000000, 11405.000000)">
                <path d="M15.2577082,29.4905183 C15.2257883,25.3501896 11.8103599,22 7.62885411,22 C3.41542841,22 0,25.3817952 0,29.5221239 C0,29.8697851 0.287279025,30.1542351 0.638397833,30.1542351 L3.76654722,30.1542351 L4.34110527,31.7661188 C4.46878483,32.0821745 4.81990364,32.2718078 5.13910256,32.1453856 C5.45830148,32.0189633 5.64982083,31.6713021 5.52214126,31.3552465 L4.85182353,29.3324905 C4.75606386,29.079646 4.53262462,28.9216182 4.24534559,28.9216182 L1.34063545,28.9216182 C1.65983437,25.7610619 4.37302516,23.2958281 7.660774,23.2958281 C11.1719621,23.2958281 14.0128324,26.1087231 14.0128324,29.5537295 C14.0128324,29.585335 14.0128324,29.6169406 14.0128324,29.6169406 L14.6512303,35.0214918 L12.7041169,35.0214918 C12.3529981,35.0214918 12.0657191,35.3059418 12.0657191,35.653603 L12.0657191,39.414665 C12.0657191,40.0783818 11.5230809,40.6156764 10.8527632,40.6156764 L8.74605032,40.6156764 C8.39493151,40.6156764 8.10765248,40.9001264 8.10765248,41.2477876 L8.10765248,46.3678887 C8.10765248,46.7155499 8.39493151,47 8.74605032,47 C9.09716913,47 9.38444815,46.7155499 9.38444815,46.3678887 L9.38444815,41.8798989 L10.8527632,41.8798989 C12.2253185,41.8798989 13.3425147,40.7737042 13.3425147,39.414665 L13.3425147,36.2857143 L15.3534679,36.2857143 C15.5449872,36.2857143 15.7045867,36.2225032 15.8322663,36.0644753 C15.9599458,35.9380531 16.0237856,35.7484197 15.9918657,35.5587863 L15.2577082,29.4905183 Z" id="Shape" fill="#F73A58" fill-rule="nonzero"></path>
                <circle id="Oval" fill="#F73A58" fill-rule="nonzero" cx="11.5" cy="30.5" r="1.5"></circle>
                <path d="M30.339226,22 C27.977154,22 25.8385213,23.0745891 24.434046,24.7496839 C24.4021261,24.7812895 24.4021261,24.8128951 24.3702063,24.8128951 C23.3487697,26.0771176 22.7103719,27.6890013 22.7103719,29.4589128 L22.0081343,35.5587863 C21.9762144,35.7484197 22.0400542,35.9064475 22.1677337,36.0644753 C22.2954133,36.1908976 22.4550128,36.2857143 22.6465321,36.2857143 L24.6574853,36.2857143 L24.6574853,39.414665 C24.6574853,40.7737042 25.7746815,41.8798989 27.1472368,41.8798989 L28.6155518,41.8798989 L28.6155518,46.3678887 C28.6155518,46.7155499 28.9028309,47 29.2539497,47 C29.6050685,47 29.8923475,46.7155499 29.8923475,46.3678887 L29.8923475,41.2477876 C29.8923475,40.9001264 29.6050685,40.6156764 29.2539497,40.6156764 L27.1472368,40.6156764 C26.4769191,40.6156764 25.9342809,40.0783818 25.9342809,39.414665 L25.9342809,35.653603 C25.9342809,35.3059418 25.6470019,35.0214918 25.2958831,35.0214918 L23.3487697,35.0214918 L23.9871676,29.6169406 C23.9871676,29.585335 23.9871676,29.5537295 23.9871676,29.5537295 C23.9871676,28.2262958 24.4021261,26.9936789 25.1362837,25.9823009 L30.1477066,27.6890013 L31.5841018,31.7977244 C31.6798614,32.0505689 31.9352206,32.2085967 32.1905797,32.2085967 C32.2544195,32.2085967 32.3182593,32.2085967 32.414019,32.1769912 C32.7332179,32.0505689 32.9247372,31.7029077 32.7970577,31.3868521 L31.2649029,26.9936789 C31.2010631,26.8040455 31.0414636,26.6776233 30.8818642,26.6144121 L26.0938804,25.0025284 C27.2110766,23.9911504 28.7432314,23.3590392 30.3711459,23.3590392 C33.882334,23.3590392 36.7232043,26.1719343 36.7232043,29.6169406 C36.7232043,29.9646018 37.0104834,30.2490518 37.3616022,30.2490518 C37.712721,30.2490518 38,29.9646018 38,29.6169406 C37.9680801,25.3817952 34.5526517,22 30.339226,22 Z" id="Shape" fill="#F73A58" fill-rule="nonzero"></path>
                <circle id="Oval" fill="#F73A58" fill-rule="nonzero" cx="26.5" cy="30.5" r="1.5"></circle>
                <path d="M24.2284264,23 C24.2910321,23 24.322335,23 24.3849408,22.9677419 C24.6666667,22.9032258 24.8544839,22.6451613 24.8544839,22.3548387 L24.8544839,17.1290323 L28.6734349,17.1290323 C30.8959391,17.1290323 32.9932318,16.2258065 34.5583756,14.6129032 C36.1235195,13 37,10.8387097 37,8.5483871 C37,3.83870968 33.2436548,0 28.6734349,0 L8.32656514,0 C6.10406091,0 4.00676819,0.903225806 2.44162437,2.51612903 C0.876480541,4.12903226 0,6.29032258 0,8.58064516 C0,13.2903226 3.75634518,17.1290323 8.32656514,17.1290323 L12.1455161,17.1290323 L12.1455161,22.3548387 C12.1455161,22.6451613 12.3333333,22.9032258 12.6150592,22.9677419 C12.8967851,23.0322581 13.178511,22.9032258 13.3350254,22.6774194 L16.4340102,17.1290323 L20.6285956,17.1290323 L23.7275804,22.6774194 C23.7901861,22.8709677 24.0093063,23 24.2284264,23 Z M23.6023689,19.9354839 L21.5050761,16.1612903 C21.3798646,15.9677419 21.1920474,15.8387097 20.9729272,15.8387097 L16.0583756,15.8387097 C15.8392555,15.8387097 15.6201354,15.9677419 15.5262267,16.1612903 L13.428934,19.9354839 L13.428934,16.483871 C13.428934,16.1290323 13.1472081,15.8387097 12.8028765,15.8387097 L8.32656514,15.8387097 C4.41370558,15.8387097 1.22081218,12.5806452 1.22081218,8.5483871 C1.22081218,6.61290323 1.97208122,4.77419355 3.28680203,3.41935484 C4.63282572,2.03225806 6.41708968,1.29032258 8.29526227,1.29032258 L28.642132,1.29032258 C32.5549915,1.29032258 35.7165821,4.5483871 35.7165821,8.5483871 C35.7165821,10.483871 34.965313,12.3225806 33.6505922,13.6774194 C32.3045685,15.0645161 30.5203046,15.8064516 28.642132,15.8064516 L24.2284264,15.8064516 C23.8840948,15.8064516 23.6023689,16.0967742 23.6023689,16.4516129 L23.6023689,19.9354839 Z" id="Shape" fill="#F73A58" fill-rule="nonzero"></path>
                <path d="M10.9996836,6 C9.34468575,6 8,7.12068966 8,8.5 C8,9.87931034 9.34468575,11 10.9996836,11 C12.6546815,11 13.9993672,9.87931034 13.9993672,8.5 C14.0338463,7.12068966 12.6546815,6 10.9996836,6 Z M10.9996836,9.85057471 C10.1032264,9.85057471 9.37916487,9.24712644 9.37916487,8.5 C9.37916487,7.75287356 10.1032264,7.14942529 10.9996836,7.14942529 C11.8961408,7.14942529 12.6202023,7.75287356 12.6202023,8.5 C12.6546815,9.24712644 11.8961408,9.85057471 10.9996836,9.85057471 Z" id="Shape" fill="#F73A58" fill-rule="nonzero"></path>
                <path d="M19,6 C17.3448276,6 16,7.12068966 16,8.5 C16,9.87931034 17.3448276,11 19,11 C20.6551724,11 22,9.87931034 22,8.5 C22,7.12068966 20.6551724,6 19,6 Z M19,9.85057471 C18.1034483,9.85057471 17.3793103,9.24712644 17.3793103,8.5 C17.3793103,7.75287356 18.1034483,7.14942529 19,7.14942529 C19.8965517,7.14942529 20.6206897,7.75287356 20.6206897,8.5 C20.6206897,9.24712644 19.8965517,9.85057471 19,9.85057471 Z" id="Shape" fill="#F73A58" fill-rule="nonzero"></path>
                <path d="M27.0171429,11 C28.6628571,11 30,9.87931034 30,8.5 C30,7.12068966 28.6628571,6 27.0171429,6 C25.3714286,6 24,7.12068966 24,8.5 C24,9.87931034 25.3714286,11 27.0171429,11 Z M27.0171429,7.14942529 C27.9085714,7.14942529 28.6285714,7.75287356 28.6285714,8.5 C28.6285714,9.24712644 27.9085714,9.85057471 27.0171429,9.85057471 C26.1257143,9.85057471 25.4057143,9.24712644 25.4057143,8.5 C25.3714286,7.75287356 26.1257143,7.14942529 27.0171429,7.14942529 Z" id="Shape" fill="#F73A58" fill-rule="nonzero"></path>
            </g>
        </g>
    </g>
</svg>