<?xml version="1.0" encoding="UTF-8"?>
<svg width="48px" height="29px" viewBox="0 0 48 29" version="1.1" xmlns="http://www.w3.org/2000/svg" xmlns:xlink="http://www.w3.org/1999/xlink">
    <title>2C97FDD0-D689-4C3C-8826-FE9DB8123750</title>
    <defs>
        <filter id="filter-1">
            <feColorMatrix in="SourceGraphic" type="matrix" values="0 0 0 0 0.535339 0 0 0 0 0.359830 0 0 0 0 0.864782 0 0 0 1.000000 0"></feColorMatrix>
        </filter>
    </defs>
    <g id="Page-1" stroke="none" stroke-width="1" fill="none" fill-rule="evenodd">
        <g id="mercado" transform="translate(-236.000000, -11415.000000)" filter="url(#filter-1)">
            <g transform="translate(236.000000, 11415.000000)">
                <path d="M8.10663171,0.0297008072 C7.9565174,0.0806545914 7.83619835,0.197196728 7.7633655,0.337324773 L0.0625326261,16.1608488 C-0.0831330825,16.4587198 0.0324270002,16.8226211 0.33906987,16.9673635 L4.57444518,19.004518 C4.93012608,19.1746346 5.31870591,19.2626887 5.70449244,19.2626887 C5.99147872,19.2626887 6.27970646,19.2192166 6.55820936,19.1214301 C7.20967028,18.8958584 7.73150112,18.4332663 8.03152283,17.8159527 L14.016335,5.52634799 C14.3161498,4.90903436 14.3478073,4.215362 14.1253774,3.56399012 C13.898292,2.91688322 13.4325342,2.39025459 12.8111789,2.09224998 L8.57559666,0.0633479814 C8.43003441,-0.00485075045 8.26109115,-0.0209549416 8.10694207,0.0296185905 L8.10663171,0.0297008072 Z M39.7635767,0.387158355 L34.6324814,2.84838646 C34.1010292,3.10392616 33.703759,3.54648824 33.5109175,4.09567508 C33.318076,4.64484136 33.3539751,5.24334792 33.6112696,5.76697564 L39.9308646,18.7467585 C40.3081678,19.5258437 41.0877069,19.9856713 41.9063523,19.9856713 C42.2276859,19.9856713 42.5519163,19.9141017 42.8605248,19.7694723 L48,17.2999197 L39.7634732,0.387158355 L39.7635767,0.387158355 Z M8.58376967,1.40989268 L12.2750711,3.18100429 C12.605095,3.34287865 12.8582513,3.62203509 12.9781565,3.96262794 C13.0980617,4.31184327 13.0781982,4.67844742 12.9192902,5.00200087 L6.93447796,17.2833119 C6.77163859,17.6111818 6.49892921,17.8625695 6.15618028,17.9817529 C5.80908621,18.1009054 5.43581783,18.0728078 5.10144882,17.9154348 L1.41014734,16.1443541 L8.5834593,1.41011878 L8.58376967,1.40989268 Z M39.2028465,2.00027007 L46.3762619,16.7344951 L42.3334177,18.6802246 C41.8490379,18.9144086 41.2549949,18.7102029 41.0192192,18.2229047 L34.7079006,5.24311155 C34.5920302,5.00892762 34.5720632,4.75001704 34.6577246,4.50308953 C34.743386,4.2561723 34.9243301,4.05262437 35.1598988,3.93767518 L39.2028465,2.00027007 L39.2028465,2.00027007 Z M15.6651095,6.25757282 C15.4335755,6.25757282 15.219629,6.38982862 15.1210356,6.59854592 L9.08594392,18.996245 C9.0172493,19.1408744 9.0092832,19.3087403 9.05945925,19.4619202 C9.11087676,19.6151721 9.22809213,19.7384355 9.36920579,19.8111253 L12.4328412,21.2662268 C12.5141574,21.3044473 12.5983704,21.3246829 12.6840318,21.3246829 C12.6730655,21.4310918 12.6499948,21.538251 12.6499948,21.6491715 C12.6499948,22.8965424 13.6751379,23.9191636 14.9351256,23.9191636 C15.187868,23.9191636 15.4403001,23.8712005 15.6718341,23.786507 C15.9674072,24.7018253 16.8322973,25.3746968 17.848026,25.3746968 C18.1007684,25.3746968 18.3407857,25.3308651 18.5678711,25.2499227 C18.8549609,26.1780154 19.7239892,26.8630345 20.7526499,26.8630345 C21.0697418,26.8630345 21.3740051,26.7910949 21.6481629,26.6719424 C21.9695999,27.5446826 22.8137989,28.1686764 23.7995254,28.1686764 C24.442296,28.1686764 25.0243381,27.8958917 25.4400234,27.4701943 C25.4958895,27.5338917 25.55548,27.5983393 25.6410379,27.6365598 L28.0266243,28.7590743 C28.3479579,28.9209487 28.6965003,29 29.0479395,29 C29.3005785,29 29.5609766,28.9617898 29.8096843,28.8752259 C30.4052791,28.6710203 30.8788995,28.2439046 31.1488156,27.6862084 C31.4275254,27.1242368 31.4634246,26.494303 31.257858,25.9068134 C31.2467882,25.873084 31.2313733,25.8412354 31.2149238,25.807136 C31.8233472,25.6284072 32.3586273,25.1978899 32.6628906,24.5848412 C32.9586707,23.976037 32.9616709,23.3057039 32.7130667,22.7139391 C32.9703612,22.6371282 33.2224828,22.517986 33.4497752,22.3564816 C33.7024141,22.1732515 33.8856343,21.9465287 34.0356451,21.6996423 L37.9278577,19.8620071 C38.0735234,19.7938187 38.1821519,19.6705553 38.2376042,19.5128021 C38.2933669,19.3636713 38.2809522,19.1961857 38.211223,19.0554821 L32.8373171,8.04637129 C32.7430689,7.85040785 32.549917,7.71814177 32.3266594,7.70539819 L22.675582,7.148298 C22.2470683,7.12207088 21.8434874,7.21536625 21.4534592,7.35624452 C21.4195257,7.31803432 21.3874544,7.27382231 21.3445203,7.24796516 C19.8873459,6.28585536 16.0895884,6.25846693 15.6610747,6.25846693 L15.6651095,6.25757282 Z M16.0333085,7.45491481 C17.108938,7.48114193 19.0668383,7.61191783 20.1682283,8.00373167 L19.7580262,8.8021378 C19.7354728,8.84484936 19.7196441,8.88868113 19.7078501,8.93477385 L18.3184393,11.5290183 C17.9539647,12.2527511 17.8899256,13.058269 18.1339777,13.7990412 C18.3825819,14.573882 18.911965,15.1999722 19.6407074,15.5618489 C21.1106068,16.2813065 22.8537329,15.7203421 23.6165122,14.2813242 L24.8134953,11.9365046 L34.0545775,16.3600598 C34.5988583,16.6197206 34.8305992,17.3118309 34.5735116,17.8567938 C34.3249074,18.384666 33.7157599,18.6223235 33.1672375,18.422167 C33.1630992,18.422167 33.1599956,18.4183645 33.1483051,18.4146648 C33.1294761,18.4071625 33.114475,18.4034833 33.0982325,18.3959399 L31.1143648,17.6558665 C30.9560775,17.6004114 30.7787544,17.6045325 30.6289504,17.6821039 C30.4746979,17.7589046 30.3660693,17.8904307 30.3188935,18.0478037 L30.2687175,18.2059269 C30.2216451,18.3591788 30.2423363,18.5225536 30.3188935,18.663288 C30.3962784,18.803786 30.5244601,18.9120859 30.6788161,18.9544172 L32.6206807,19.5115174 C33.1264759,19.8011565 33.3175587,20.4342763 33.0475392,20.974964 C32.9747063,21.1368383 32.8709402,21.2679842 32.7209293,21.373869 C32.3949402,21.6080529 31.9904282,21.6526452 31.5490859,21.4653042 L29.5318021,20.7086025 C29.3774461,20.649016 29.204675,20.6568985 29.0546641,20.7273376 C28.9045498,20.7955261 28.7878517,20.9274222 28.7366411,21.0847849 L28.693707,21.2181814 C28.6423929,21.3714436 28.655118,21.5471715 28.727537,21.6920989 C28.8003699,21.8367386 28.9289654,21.944648 29.0874596,21.9914909 L31.0210478,22.5568642 L31.0549812,22.5643664 C31.5949168,22.8540055 31.8145534,23.5037639 31.5487756,24.0444619 C31.2746178,24.6021478 30.596155,24.8413162 29.9919733,24.5433321 L27.9327899,23.7700226 C27.7743991,23.7145675 27.597076,23.7186886 27.447272,23.79626 C27.2930195,23.8730709 27.1848048,24.0087079 27.1372151,24.170572 L27.0870391,24.3204632 C27.0399667,24.4737048 27.0607613,24.6370694 27.1372151,24.7777729 C27.2144966,24.9182812 27.3427817,25.0261906 27.4970342,25.0689125 L29.5060416,25.6509654 C29.7803028,25.7828512 29.9850418,26.0103037 30.0835317,26.2912072 C30.1820215,26.5722238 30.1620546,26.879262 30.0247688,27.1560136 C29.8960698,27.4242969 29.6715708,27.623477 29.3886193,27.7213868 C29.1056678,27.8191938 28.8133019,27.7993282 28.5346955,27.6629308 L26.1492126,26.5404162 C26.0933465,26.5141994 26.0333422,26.5066971 25.9734413,26.4977047 C26.0292039,26.3062323 26.0654134,26.0992107 26.0654134,25.890699 C26.0654134,24.6390117 25.0403738,23.6207068 23.7803861,23.6207068 C23.4676393,23.6207068 23.1590308,23.6844042 22.8846661,23.803937 C22.5633325,22.9311864 21.7191336,22.307203 20.7335105,22.307203 C20.4808716,22.307203 20.2407508,22.351045 20.0136654,22.431977 C19.7307139,21.4996194 18.8575473,20.8272 17.8289901,20.8272 C17.5762477,20.8272 17.3238156,20.8654102 17.0922816,20.9519741 C16.8007433,20.0366559 15.9359566,19.3637843 14.9160898,19.3637843 C14.1703806,19.3637843 13.5154022,19.7332353 13.0996135,20.2867282 C13.0524377,20.2440166 13.0008133,20.1960535 12.9409124,20.1705766 L10.4297308,18.9732243 L16.0295841,7.45689829 L16.0333085,7.45491481 Z M22.6040941,8.352947 L31.9035254,8.88513553 L35.2685274,15.7865882 C35.0798241,15.5865037 34.8519111,15.4152669 34.5905818,15.287718 L24.8137022,10.6063416 C24.5181291,10.465823 24.1601722,10.5838554 24.0102648,10.8723742 L22.5370548,13.7410887 C22.0871257,14.5882699 21.0549476,14.9151531 20.1849881,14.4894249 C19.7564744,14.2765968 19.439279,13.9057584 19.2893716,13.4416967 C19.1438093,12.9989599 19.1924336,12.5078078 19.4062766,12.0863445 L20.8544503,9.38400576 C20.8732793,9.36526036 20.8807281,9.33904352 20.8882804,9.31768774 C20.8924186,9.31018546 20.8993501,9.31018546 20.9071093,9.29894233 C21.2326846,8.68162871 21.9034917,8.31271221 22.6062667,8.35100463 L22.6040941,8.352947 Z M35.8795371,17.0421602 L36.8421929,19.0211258 L34.3728074,20.1935459 C34.3464262,19.9934613 34.3076303,19.7989161 34.2306592,19.6115032 C34.8436346,19.4327641 35.3788112,19.0022365 35.6787295,18.3891982 C35.8842961,17.9549194 35.9484386,17.4849483 35.879744,17.0421602 L35.8795371,17.0421602 Z M14.9367809,20.5843628 C15.5238923,20.5843628 15.9996854,21.0654331 15.9996854,21.6486885 C15.9996854,21.7296206 15.9613033,21.8326586 15.9242661,21.9645444 C15.9054372,22.0155085 15.8978849,22.0672228 15.8978849,22.1226779 C15.8507091,22.156397 15.8149134,22.1964879 15.7805661,22.247452 C15.6565226,22.4179283 15.3807096,22.7047617 14.9351256,22.7047617 C14.3480142,22.7047617 13.8637378,22.2320467 13.8637378,21.6488016 C13.8637378,21.0655462 14.3480142,20.5844656 14.9351256,20.5844656 L14.9367809,20.5843628 Z M17.8413013,22.0311708 C18.4284128,22.0311708 18.9126892,22.5122411 18.9126892,23.0954964 C18.9126892,23.1891721 18.886308,23.2955913 18.8372699,23.4447118 C18.8262002,23.4874233 18.8070609,23.5312654 18.8033364,23.5694859 C18.7647474,23.6032152 18.7285379,23.6433062 18.6942941,23.6856477 C18.5702506,23.8643765 18.2906097,24.159596 17.8404737,24.159596 C17.2491206,24.159596 16.7690859,23.6827599 16.7690859,23.0952806 C16.7690859,23.0102172 16.8075714,22.91129 16.8445051,22.7794042 C16.8633341,22.7284401 16.8747142,22.6767361 16.8784386,22.6216509 C16.9256144,22.5879318 16.9615136,22.5437198 16.9954471,22.4968768 C17.1194905,22.3222795 17.3953036,22.0312016 17.8407841,22.0312016 L17.8413013,22.0311708 Z M20.7542017,23.5195803 C21.3455548,23.5195803 21.8255895,24.0006507 21.8255895,24.5838649 C21.8255895,24.6902738 21.7953805,24.8049353 21.7418938,24.949575 C21.7387902,24.9607564 21.7387902,24.9795532 21.7346519,24.9922865 C21.7236856,25.0110216 21.7082707,25.030507 21.700615,25.0507426 C21.5162568,25.4168226 21.1534375,25.649393 20.7548224,25.649393 C20.167711,25.649393 19.6833311,25.1725877 19.6833311,24.5850673 C19.6833311,24.4955128 19.7135402,24.3849828 19.7672338,24.2358417 C19.7782001,24.1931302 19.7897871,24.1537998 19.7935115,24.1110676 C19.8365491,24.0773485 19.8807247,24.0290257 19.91052,23.9863038 C20.0345634,23.8116962 20.3060313,23.5206389 20.755857,23.5206389 L20.7542017,23.5195803 Z M23.8010772,24.8333103 C24.3924304,24.8333103 24.8640852,25.3060973 24.8640852,25.8893527 C24.8640852,26.4725978 24.3840505,26.9536783 23.7925939,26.9536783 C23.2054824,26.9536783 22.7296894,26.4725978 22.7296894,25.8893527 C22.7296894,25.7870648 22.759795,25.6765142 22.8133851,25.5318951 C22.8164888,25.5205903 22.8164888,25.5019066 22.820627,25.489163 C22.8315933,25.4704381 22.8431804,25.4509528 22.8545605,25.4307275 C23.0390221,25.0646372 23.4019449,24.8320359 23.8004565,24.8320359 L23.8010772,24.8333103 Z" id="Shape" fill="#F73A58" fill-rule="nonzero"></path>
            </g>
        </g>
    </g>
</svg>