<?xml version="1.0" encoding="UTF-8"?>
<svg width="45px" height="40px" viewBox="0 0 45 40" version="1.1" xmlns="http://www.w3.org/2000/svg" xmlns:xlink="http://www.w3.org/1999/xlink">
    <title>6913D43A-120F-4BE0-9BD7-7621978A045C</title>
    <g id="Page-1" stroke="none" stroke-width="1" fill="none" fill-rule="evenodd">
        <g id="Pacote-Fullstack-Master" transform="translate(-237.000000, -11581.000000)" fill="#895CDD" fill-rule="nonzero">
            <path d="M276.570248,11590.5019 C277.357438,11589.5019 277.842459,11588.2603 277.842459,11586.8971 C277.842459,11583.6447 275.177169,11581 271.902893,11581 C268.628616,11581 265.963326,11583.6447 265.963326,11586.8971 C265.963326,11588.2603 266.448347,11589.5019 267.235537,11590.5019 C266.378616,11590.9496 265.588326,11591.505 264.892562,11592.1727 C263.958161,11590.1265 261.892562,11588.6926 259.490702,11588.6926 C257.088843,11588.6926 255.027893,11590.1219 254.093492,11592.162 C253.402376,11591.4989 252.615186,11590.945 251.764463,11590.5019 C252.550103,11589.5019 253.036674,11588.2603 253.036674,11586.8971 C253.036674,11583.6447 250.371384,11581 247.097107,11581 C243.822831,11581 241.157541,11583.6447 241.157541,11586.8971 C241.157541,11588.2603 241.644112,11589.5019 242.429752,11590.5019 C239.108988,11592.2158 237.00155,11595.5698 237,11599.353 C237.00155,11601.2854 238.507748,11602.8793 240.41374,11603.0378 L240.41374,11609.6088 C240.41374,11611.6489 242.085744,11613.3089 244.140496,11613.3089 L250.044421,11613.3089 C251.139979,11613.3089 252.127066,11612.8274 252.813533,11612.0658 L252.813533,11617.2999 C252.813533,11619.3399 254.485537,11621 256.541839,11621 L262.445764,11621 C264.500517,11621 266.17407,11619.3399 266.17407,11617.2999 L266.17407,11612.0504 C266.858988,11612.8197 267.853822,11613.3059 268.955579,11613.3059 L274.859504,11613.3059 C276.912707,11613.3059 278.58626,11611.6458 278.58626,11609.6073 L278.58626,11603.0347 C280.490702,11602.8762 281.996901,11601.2839 282,11599.3499 C282,11595.5698 279.891012,11592.2158 276.570248,11590.5019 Z M271.902893,11582.5385 C274.324897,11582.5385 276.292872,11584.494 276.292872,11586.8971 C276.292872,11589.3019 274.323347,11591.2558 271.902893,11591.2558 C269.482438,11591.2558 267.512913,11589.3003 267.512913,11586.8971 C267.512913,11584.494 269.480888,11582.5385 271.902893,11582.5385 Z M255.178202,11593.8343 C255.1875,11593.7882 255.193698,11593.7451 255.195248,11593.6974 C255.612087,11591.7204 257.378616,11590.2311 259.490702,11590.2311 C261.912707,11590.2311 263.880682,11592.1866 263.880682,11594.5898 C263.880682,11596.9945 261.911157,11598.9484 259.490702,11598.9484 C257.070248,11598.9484 255.100723,11596.9929 255.100723,11594.5898 C255.100723,11594.3313 255.134814,11594.0805 255.178202,11593.8343 Z M247.097107,11582.5385 C249.519112,11582.5385 251.487087,11584.494 251.487087,11586.8971 C251.487087,11589.3019 249.517562,11591.2558 247.097107,11591.2558 C244.676653,11591.2558 242.707128,11589.3019 242.707128,11586.8971 C242.707128,11584.494 244.676653,11582.5385 247.097107,11582.5385 Z M250.044421,11611.7704 L244.140496,11611.7704 C242.941116,11611.7704 241.963326,11610.8011 241.963326,11609.6103 L241.963326,11602.2793 C241.963326,11601.8546 241.616219,11601.51 241.188533,11601.51 L240.728306,11601.51 C239.528926,11601.51 238.552686,11600.5408 238.551136,11599.3515 C238.552686,11595.9806 240.529959,11593.0112 243.607438,11591.645 C244.589876,11592.3589 245.789256,11592.7958 247.098657,11592.7958 C248.404959,11592.7958 249.604339,11592.362 250.585227,11591.6481 C251.756715,11592.1727 252.793388,11592.9482 253.620868,11593.9251 C253.594525,11594.1467 253.552686,11594.3621 253.552686,11594.5898 C253.552686,11595.956 254.042355,11597.2006 254.831095,11598.2007 C251.516529,11599.9177 249.415289,11603.2685 249.41374,11607.0472 C249.415289,11608.6857 250.50155,11610.0703 251.993802,11610.5519 C251.637397,11611.275 250.898244,11611.7704 250.044421,11611.7704 Z M265.859504,11609.2042 L265.399277,11609.2042 C264.970041,11609.2042 264.624483,11609.5503 264.624483,11609.9734 L264.624483,11617.3029 C264.624483,11618.4937 263.645145,11619.4646 262.445764,11619.4646 L256.541839,11619.4646 C255.340909,11619.4646 254.36312,11618.4953 254.36312,11617.3029 L254.36312,11609.9734 C254.36312,11609.5503 254.016012,11609.2042 253.588326,11609.2042 L253.138946,11609.2042 C251.939566,11609.2042 250.963326,11608.2349 250.961777,11607.0472 C250.963326,11603.6809 252.934401,11600.7161 256.005682,11599.3438 C256.98812,11600.0546 258.184401,11600.4884 259.490702,11600.4884 C260.800103,11600.4884 261.999483,11600.053 262.981921,11599.3376 C266.057851,11600.7069 268.036674,11603.6716 268.038223,11607.0441 C268.036674,11608.2349 267.060434,11609.2042 265.859504,11609.2042 Z M278.270145,11601.5116 L277.809917,11601.5116 C277.382231,11601.5116 277.035124,11601.8577 277.035124,11602.2808 L277.035124,11609.6103 C277.035124,11610.8011 276.057335,11611.772 274.857955,11611.772 L268.954029,11611.772 C268.098657,11611.772 267.362603,11611.2781 267.004649,11610.5534 C268.496901,11610.0703 269.583161,11608.6872 269.584711,11607.0472 C269.583161,11603.267 267.477273,11599.9115 264.154959,11598.1991 C264.940599,11597.1991 265.427169,11595.9575 265.427169,11594.5944 C265.427169,11594.3728 265.385331,11594.1636 265.362087,11593.9482 C266.189566,11592.962 267.233988,11592.1804 268.413223,11591.6527 C269.395661,11592.3651 270.593492,11592.8005 271.899793,11592.8005 C273.209194,11592.8005 274.408574,11592.3651 275.391012,11591.6496 C278.466942,11593.0174 280.445764,11595.9852 280.448865,11599.3561 C280.450413,11600.5423 279.472624,11601.5116 278.270145,11601.5116 Z" id="alunos"></path>
        </g>
    </g>
</svg>