<?xml version="1.0" encoding="UTF-8"?>
<svg width="46px" height="46px" viewBox="0 0 46 46" version="1.1" xmlns="http://www.w3.org/2000/svg" xmlns:xlink="http://www.w3.org/1999/xlink">
    <title>BD6A67E3-09DE-4E0B-A002-815CED3777D9</title>
    <defs>
        <filter id="filter-1">
            <feColorMatrix in="SourceGraphic" type="matrix" values="0 0 0 0 0.535339 0 0 0 0 0.359830 0 0 0 0 0.864782 0 0 0 1.000000 0"></feColorMatrix>
        </filter>
    </defs>
    <g id="Page-1" stroke="none" stroke-width="1" fill="none" fill-rule="evenodd">
        <g id="timer" transform="translate(-974.000000, -11407.000000)" filter="url(#filter-1)">
            <g transform="translate(974.000000, 11407.000000)">
                <path d="M14.2203608,20.5368487 L20.7884176,23.9384809 C20.7884176,23.9384809 20.7884176,23.9384809 20.7884176,23.9384809 C20.7884176,25.3101067 21.8477816,26.4074074 23.1719866,26.4074074 C24.4961916,26.4074074 25.5555556,25.3101067 25.5555556,23.9384809 C25.5555556,22.9509102 25.0258736,22.1279347 24.2313506,21.7438795 L24.2313506,11.3195229 C24.2313506,10.7160075 23.7546368,10.2222222 23.1719866,10.2222222 C22.5893364,10.2222222 22.1126226,10.7160075 22.1126226,11.3195229 L22.1126226,21.7438795 C22.0066862,21.7987445 21.8477816,21.9084746 21.7418452,21.9633396 L15.1737884,18.5617075 C14.6441064,18.2873823 14.008488,18.5068424 13.743647,19.0554928 C13.478806,19.6041431 13.6906788,20.2625235 14.2203608,20.5368487 Z M23.1719866,23.6641557 C23.3308912,23.6641557 23.4368276,23.7738858 23.4368276,23.9384809 C23.4368276,24.103076 23.3308912,24.212806 23.1719866,24.212806 C23.013082,24.212806 22.9071456,24.103076 22.9071456,23.9384809 C22.9071456,23.7738858 23.013082,23.6641557 23.1719866,23.6641557 Z" id="Shape" fill="#F73A58" fill-rule="nonzero"></path>
                <path d="M23,46 C35.6635294,46 46,35.6635294 46,23 C46,10.3364706 35.6635294,0 23,0 C10.3364706,0 0,10.3364706 0,23 C0,35.6635294 10.3364706,46 23,46 Z M3.51764706,21.9176471 L2.21882353,21.9176471 C2.76,11.0941176 11.5811765,2.43529412 22.4588235,2.16470588 L22.4588235,3.51764706 C22.4588235,4.11294118 22.9458824,4.6 23.5411765,4.6 C24.1364706,4.6 24.6235294,4.11294118 24.6235294,3.51764706 L24.6235294,2.21882353 C35.0141176,3.03058824 43.2941176,11.4729412 43.7811765,21.9176471 L42.4823529,21.9176471 C41.8870588,21.9176471 41.4,22.4047059 41.4,23 C41.4,23.5952941 41.8870588,24.0823529 42.4823529,24.0823529 L43.7811765,24.0823529 C43.24,34.5270588 34.96,42.9694118 24.6235294,43.7811765 L24.6235294,42.4823529 C24.6235294,41.8870588 24.1364706,41.4 23.5411765,41.4 C22.9458824,41.4 22.4588235,41.8870588 22.4588235,42.4823529 L22.4588235,43.8352941 C11.5811765,43.5647059 2.76,34.9058824 2.21882353,24.0823529 L3.51764706,24.0823529 C4.11294118,24.0823529 4.6,23.5952941 4.6,23 C4.6,22.4047059 4.11294118,21.9176471 3.51764706,21.9176471 Z" id="Shape" fill="#F73A58" fill-rule="nonzero"></path>
            </g>
        </g>
    </g>
</svg>